<?xml version="1.0" encoding="UTF-8"?>
<svg id="Capa_1" xmlns="http://www.w3.org/2000/svg" version="1.1" viewBox="0 0 150 150">
  <!-- Generator: Adobe Illustrator 29.0.0, SVG Export Plug-In . SVG Version: 2.1.0 Build 186)  -->
  <defs>
    <style>
      .st0 {
        fill: #fcc419;
      }
    </style>
  </defs>
  <g id="_x31_918_x2C__Brainstorm_x2C__Idea_x2C__People_x2C__Team_x2C__Teamwork">
    <g>
      <path class="st0" d="M47.43,58.57c3.65-2.8,6.08-7.21,6.08-12.22,0-8.41-6.89-15.23-15.4-15.23s-15.4,6.81-15.4,15.23c0,5.01,2.43,9.42,6.08,12.22-8.11,3.61-13.78,11.62-13.78,21.04v20.44c0,1.4,1.22,2.6,2.63,2.6h7.5v30.65c0,1.4,1.22,2.6,2.64,2.6s2.63-1.2,2.63-2.6v-41.07c0-1.4-1.21-2.61-2.63-2.61s-2.64,1.2-2.64,2.61v5.21h-5.07v-18.03c0-9.82,8.11-17.83,18.04-17.83s18.04,8.01,18.04,17.83v18.03h-5.07v-5.01c0-1.4-1.22-2.6-2.63-2.6s-2.64,1.2-2.64,2.6v40.87c0,1.4,1.22,2.6,2.64,2.6s2.63-1.2,2.63-2.6v-30.85h7.7c1.42,0,2.64-1.2,2.64-2.6v-20.44c0-9.21-5.88-17.43-13.98-20.84ZM27.77,46.35c0-5.61,4.66-10.22,10.34-10.22s10.34,4.61,10.34,10.22-4.66,10.22-10.34,10.22-10.34-4.61-10.34-10.22Z"/>
      <path class="st0" d="M38.1,110.06c-1.42,0-2.64,1.2-2.64,2.6v20.44c0,1.4,1.22,2.6,2.64,2.6s2.63-1.2,2.63-2.6v-20.44c0-1.4-1.21-2.6-2.63-2.6Z"/>
      <rect class="st0" x="35.47" y="77" width="5.07" height="5.01"/>
      <path class="st0" d="M125.04,58.57c3.65-2.8,6.08-7.21,6.08-12.22,0-8.41-6.89-15.23-15.4-15.23s-15.4,6.81-15.4,15.23c0,5.01,2.43,9.42,6.08,12.22-8.11,3.61-13.78,11.62-13.78,21.04v20.44c0,1.4,1.22,2.6,2.64,2.6h7.7v30.65c0,1.4,1.22,2.6,2.64,2.6s2.64-1.2,2.64-2.6v-41.07c0-1.4-1.22-2.61-2.64-2.61s-2.64,1.2-2.64,2.61v5.21h-5.07v-18.03c0-9.82,8.11-17.83,18.04-17.83s18.04,8.01,18.04,17.83v18.03h-5.47v-5.01c0-1.4-1.22-2.6-2.63-2.6s-2.64,1.2-2.64,2.6v40.87c0,1.4,1.22,2.6,2.64,2.6s2.63-1.2,2.63-2.6v-30.85h7.7c1.42,0,2.63-1.2,2.63-2.6v-20.44c0-9.21-5.67-17.43-13.78-20.84ZM105.18,46.35c0-5.61,4.66-10.22,10.34-10.22s10.34,4.61,10.34,10.22-4.66,10.22-10.34,10.22-10.34-4.61-10.34-10.22Z"/>
      <path class="st0" d="M115.52,110.06c-1.42,0-2.64,1.2-2.64,2.6v20.44c0,1.4,1.22,2.6,2.64,2.6s2.63-1.2,2.63-2.6v-20.44c0-1.4-1.22-2.6-2.63-2.6Z"/>
      <rect class="st0" x="112.89" y="77" width="5.07" height="5.01"/>
      <path class="st0" d="M92.21,56.57c1.42,0,2.64-1.2,2.64-2.6s-1.22-2.6-2.64-2.6h-2.63v-2c4.86-3.81,7.7-9.82,7.7-16.03,0-11.22-9.32-20.44-20.67-20.44s-20.67,9.22-20.67,20.44c0,6.21,2.84,12.02,7.7,16.03v2h-2.64c-1.42,0-2.64,1.2-2.64,2.6s1.22,2.6,2.64,2.6h2.64v5.01c0,1.4,1.21,2.61,2.63,2.61h2.64v7.61c0,1.4,1.22,2.6,2.63,2.6h10.34c1.42,0,2.64-1.2,2.64-2.6v-7.61h2.64c1.42,0,2.63-1.2,2.63-2.61v-5.01h2.43ZM67.89,46.15c-4.26-2.81-6.69-7.61-6.69-12.62,0-8.41,6.89-15.23,15.4-15.23s15.4,6.81,15.4,15.23c0,5.01-2.43,9.62-6.69,12.62-.61.4-1.01,1.2-1.01,2v3.2h-5.07v-15.23c0-1.4-1.22-2.61-2.64-2.61s-2.64,1.2-2.64,2.61v15.23h-5.07v-3.2c.2-.8-.2-1.6-1.01-2ZM79.45,69.39h-5.07v-5.01h5.07v5.01ZM84.51,59.17h-15.4v-2.61h15.4v2.61Z"/>
    </g>
  </g>
</svg>