<?xml version="1.0" encoding="UTF-8"?>
<svg id="Capa_1" xmlns="http://www.w3.org/2000/svg" version="1.1" viewBox="0 0 150 150">
  <!-- Generator: Adobe Illustrator 29.0.0, SVG Export Plug-In . SVG Version: 2.1.0 Build 186)  -->
  <defs>
    <style>
      .st0 {
        fill: #fcc419;
      }
    </style>
  </defs>
  <g id="B_-_86_x2C__worker_x2C__Building_x2C__carpenter_x2C__construction_x2C__repair">
    <g>
      <path class="st0" d="M77.44,138.85c-15.19,0-30.14-1.64-44.85-5.17-.47,0-.71-.47-.71-.94v-9.63c-.24-19.5,0-19.74,15.42-27.96,3.08-1.64,7.12-3.76,11.86-6.34.24-.24.47-.24.71,0s.47.24.71.47l10.44,18.8,6.17-5.87c.47-.47.95-.47,1.42,0l5.46,5.17,11.15-18.09c.24-.47.95-.7,1.43-.47,4.51,2.58,8.54,4.7,11.63,6.34,15.9,8.46,15.9,8.69,15.66,28.19v9.4c0,.47-.24.94-.95.94-15.42,3.52-30.61,5.17-45.56,5.17ZM33.78,131.81c28.71,6.58,58.14,6.58,87.8,0v-8.69c0-9.4.24-14.1-1.66-17.15-1.66-3.05-5.46-5.17-13.05-9.16-2.85-1.65-6.41-3.52-10.68-5.87l-11.15,18.33c-.24.24-.47.47-.71.47s-.71,0-.95-.24l-5.69-5.4-6.41,6.34c-.24.24-.47.24-.95.24-.24,0-.71-.24-.71-.47l-10.68-19.27c-4.27,2.35-8.07,4.46-10.91,5.87-7.36,3.99-11.15,5.87-12.81,8.93-1.66,3.06-1.66,7.75-1.66,17.15.24,2.82.24,5.64.24,8.93Z"/>
      <path class="st0" d="M100.93,126.64h-9.73c-.47,0-.71-.24-.95-.47-.24-.24-.24-.7,0-.94l14.95-30.31c.24-.24.24-.47.71-.47h.95l1.42.7c2.37,1.41,4.51,2.35,6.41,3.52.47.24.71.94.47,1.41l-12.81,26.08c-.47.24-.95.47-1.42.47ZM93.1,124.52h7.36l12.1-24.67c-1.42-.94-3.32-1.88-5.46-2.82l-.47-.24-13.53,27.72Z"/>
      <path class="st0" d="M77.44,138.85c-9.02,0-18.03-.7-27.05-1.88-.47,0-.95-.47-.95-.94v-6.11c0-.47.48-.94.95-.94h54.1c.48,0,.95.47.95.94v6.11c0,.47-.47.94-.95.94-8.78,1.17-18.03,1.88-27.05,1.88ZM51.58,135.1c17.08,2.35,34.64,2.35,51.97,0v-4.23h-51.97v4.23ZM104.73,136.04h0Z"/>
      <path class="st0" d="M78.15,83.64c-15.42,0-23.25-21.62-23.25-33.13,0-1.41,0-2.58.47-3.99,0-.47.48-.94.95-.94h43.9c.48,0,.95.47.95.94.24,1.41.47,2.82.47,3.99-.24,11.51-8.3,33.13-23.49,33.13ZM57.04,47.69c-.24.94-.24,1.88-.24,2.82,0,6.11,2.14,13.86,5.69,19.74,2.85,5.17,8.07,11.04,15.66,11.04s12.58-6.11,15.66-11.04c3.32-5.87,5.69-13.63,5.69-19.74,0-.94,0-1.88-.24-2.82h-42.24Z"/>
      <path class="st0" d="M84.09,109.72c-.24,0-.48,0-.71-.24l-6.41-5.87c-.48-.47-.48-.94-.24-1.41l13.05-17.86c.24-.24.47-.47.71-.47s.71,0,.71.24l4.98,4.7c.48.24.48.94.24,1.41l-11.63,19.03c.24.24-.24.47-.71.47q.24,0,0,0ZM79.1,102.67l4.75,4.46,10.68-17.15-3.56-3.29-11.87,15.98Z"/>
      <path class="st0" d="M70.56,110.66h0c-.47,0-.71-.24-.95-.47l-11.15-20.21c-.24-.47-.24-.94.24-1.17l4.98-4.7c.24-.24.48-.24.71-.24s.47.24.71.47l13.05,17.86c.24.47.24.94,0,1.41l-7.12,7.05h-.48ZM60.83,89.75l9.97,18.09,5.46-5.4-11.86-15.98-3.56,3.29Z"/>
      <path class="st0" d="M83.61,58.97c-.47,0-.71-.24-.95-.7-.24-.47,0-1.17.48-1.41.47-.24,5.22-2.11,7.59.24.47.47.47,1.17,0,1.41-.48.47-1.19.47-1.42,0-1.19-1.17-4.27-.24-5.22.23,0,.24-.24.24-.48.24Z"/>
      <path class="st0" d="M72.46,58.97h-.47c-.95-.47-4.03-1.41-5.22-.24-.47.47-1.19.47-1.42,0-.47-.47-.47-1.17,0-1.41,2.37-2.35,7.12-.47,7.59-.24.47.24.71.94.47,1.41,0,.23-.47.47-.95.47Z"/>
      <path class="st0" d="M72.7,15.97h0c-.47,0-.95-.47-.95-.94h0v-.24c0-.24,0-.71.24-.94.24-.24.47-.47.95-.47h0c.47,0,.95.47.95.94v.47h0c-.24.7-.71,1.17-1.19,1.17Z"/>
      <path class="st0" d="M102.59,40.17h-49.83c-.47,0-.95-.47-.95-.94v-.7c0-9.87,5.7-19.03,14.71-23.26.24-.23.71-.23.95,0,.24.24.47.47.47.94v5.64c0,.24.24.47.47.47h2.37c.24,0,.47-.23.47-.47,0-.47.48-.94,1.19-.94.48,0,.95.47.95.94v3.76c0,.94.95,1.88,1.9,1.88h4.27c.95,0,1.9-.94,1.9-1.88v-3.76c0-.47.47-.94.95-.94s.95.47,1.19.94c0,.24.24.47.48.47h2.37c.24,0,.48-.23.48-.47v-5.64c0-.47.24-.71.47-.94.24-.23.71-.23.95,0,9.02,4.23,14.71,13.39,14.71,23.26v.7c.48.47,0,.94-.47.94ZM53.95,38.06h47.46c0-8.22-4.74-15.98-11.86-19.97v3.76c0,1.41-1.19,2.58-2.61,2.58h-2.85v1.17c0,2.11-1.9,3.99-4.03,3.99h-4.27c-2.14,0-4.03-1.88-4.03-3.99v-1.17h-2.85c-1.42,0-2.61-1.17-2.61-2.58v-3.76c-7.59,3.99-12.34,11.75-12.34,19.97Z"/>
      <path class="st0" d="M82.66,15.97c-.47,0-.95-.47-.95-.94v-.47c0-.47.47-.94.95-.94h0c.24,0,.71.24.95.47.24.24.24.71.24.94h0c0,.47-.48.94-1.19.94Z"/>
      <path class="st0" d="M103.07,47.69h-50.78c-1.9,0-3.32-1.41-3.32-3.29v-3.06c0-1.88,1.42-3.29,3.32-3.29h50.78c1.9,0,3.32,1.41,3.32,3.29v3.06c0,1.88-1.42,3.29-3.32,3.29ZM52.29,40.17c-.71,0-1.19.47-1.19,1.17v3.06c0,.7.47,1.17,1.19,1.17h50.78c.71,0,1.19-.47,1.19-1.17v-3.06c0-.7-.47-1.17-1.19-1.17h-50.78Z"/>
      <path class="st0" d="M79.81,29.84h-4.27c-2.14,0-4.03-1.88-4.03-3.99v-11.51c0-2.11,1.9-3.99,4.03-3.99h4.27c1.19,0,2.14.47,2.85,1.17.71.7,1.19,1.88,1.19,2.82v11.51c0,2.12-1.9,3.99-4.03,3.99ZM75.54,12.21c-.95,0-1.9.94-1.9,1.88v11.51c0,.94.95,1.88,1.9,1.88h4.27c.95,0,1.9-.94,1.9-1.88v-11.51c0-.47-.24-.94-.48-1.41-.47-.47-.95-.47-1.42-.47h-4.27Z"/>
      <path class="st0" d="M88.83,35.47h-5.46c-.47,0-.95-.47-.95-.94s.48-.94.95-.94h5.46c.47,0,.95.47.95.94s-.47.94-.95.94Z"/>
      <path class="st0" d="M78.63,35.47h-18.98c-.47,0-.95-.47-.95-.94s.47-.94.95-.94h18.98c.47,0,.95.47.95.94s-.47.94-.95.94Z"/>
      <path class="st0" d="M71.04,24.67h-2.37c-1.42,0-2.61-1.17-2.61-2.58v-7.05c0-.71.24-1.41.71-1.88.47-.47,1.19-.7,1.9-.7h2.37c1.42,0,2.61,1.17,2.61,2.82v7.05c0,1.17-1.19,2.35-2.61,2.35ZM68.66,14.33q-.24,0-.47.24s-.24.24-.24.47v7.05c0,.23.24.47.47.47h2.37c.24,0,.47-.24.47-.47v-7.05c0-.24-.24-.71-.47-.71h-2.14Z"/>
      <path class="st0" d="M86.7,24.67h-2.37c-1.42,0-2.61-1.17-2.61-2.58v-7.05c0-.71.24-1.41.71-1.88.48-.47,1.19-.7,1.9-.7h2.37c1.42,0,2.61,1.17,2.61,2.82v7.05c.24,1.17-1.19,2.35-2.61,2.35ZM84.32,14.33q-.24,0-.47.24s-.24.24-.24.47v7.05c0,.23.24.47.48.47h2.37c.24,0,.48-.24.48-.47v-7.05c0-.24-.24-.71-.48-.71h-2.14Z"/>
      <path class="st0" d="M77.68,75.42c-1.9,0-3.8-.7-5.46-1.88-.47-.24-.71-.94-.24-1.41.24-.47.95-.7,1.42-.24,2.85,1.88,5.7,1.88,8.78,0,.47-.24,1.19-.24,1.42.24.24.47.24,1.17-.24,1.41-1.9,1.41-3.8,1.88-5.69,1.88Z"/>
      <path class="st0" d="M64.63,126.64h-9.73c-.48,0-.71-.24-.95-.71l-12.81-26.08c-.24-.47,0-1.17.47-1.41,1.66-.94,3.8-2.12,6.17-3.29l1.66-.94c.24-.24.48-.24.95,0,.24,0,.47.24.71.47l14.95,30.31c.24.24.24.7,0,.94-.71.47-.95.71-1.42.71ZM55.61,124.52h7.36l-13.53-27.72-.71.24c-1.9.94-3.56,1.88-5.22,2.82l12.1,24.67Z"/>
      <path class="st0" d="M94.05,130.87h-.48c-.47-.24-.71-.94-.47-1.41l1.9-4.23c.24-.47.95-.71,1.42-.47.48.24.71.94.48,1.41l-1.9,4.23c0,.24-.48.47-.95.47Z"/>
      <path class="st0" d="M61.78,130.87c-.47,0-.71-.24-.95-.7l-1.9-4.23c-.24-.47,0-1.17.47-1.41.48-.23,1.19,0,1.42.47l1.9,4.23c.24.47,0,1.17-.47,1.41q-.24.24-.48.24Z"/>
    </g>
  </g>
</svg>