<?xml version="1.0" encoding="UTF-8"?>
<svg id="Capa_1" xmlns="http://www.w3.org/2000/svg" version="1.1" viewBox="0 0 150 150">
  <!-- Generator: Adobe Illustrator 29.0.0, SVG Export Plug-In . SVG Version: 2.1.0 Build 186)  -->
  <defs>
    <style>
      .st0 {
        fill: #fff;
      }
    </style>
  </defs>
  <path class="st0" d="M136.13,73.92h-12.82v-5.52h4.2c.66,0,1.32-.66,1.32-1.33v-8.4c0-.66-.66-1.33-1.32-1.33h-15.25c-.66,0-1.32.66-1.32,1.33v6.85h-4.2c-.66,0-1.32.66-1.32,1.32v6.85h-5.52v-18.12c0-5.3-4.2-9.5-9.5-9.5h-27.84c-5.3,0-9.5,4.2-9.5,9.5v18.12h-5.52v-15.25c0-.66-.66-1.33-1.32-1.33h-24.97c-.66,0-1.33.66-1.33,1.33v15.25h-3.09c-2.87,0-5.3,2.43-5.3,5.3v3.31c0,2.87,2.43,5.3,5.3,5.3h5.74v47.07c0,.66.66,1.33,1.32,1.33h8.4c.66,0,1.32-.66,1.32-1.33v-15.25h16.57c.66,0,1.33-.66,1.33-1.32v-11.05c0-.66-.66-1.33-1.33-1.33s-1.32.44-1.32,1.33v9.72h-15.25v-29.17h19.44v5.52h-2.87c-.66,0-1.32.66-1.32,1.33,0,6.19,4.86,11.05,11.05,11.05h11.05v15.25h-9.72c-.66,0-1.32.66-1.32,1.33v2.87c-2.43.66-4.2,2.87-4.2,5.3,0,3.09,2.43,5.52,5.52,5.52s5.52-2.43,5.52-5.52c0-2.65-1.77-4.64-4.2-5.3v-1.55h28.94v1.55c-2.43.66-4.2,2.87-4.2,5.3,0,3.09,2.43,5.52,5.52,5.52s5.52-2.43,5.52-5.52c0-2.65-1.77-4.64-4.2-5.3v-2.87c0-.66-.66-1.33-1.32-1.33h-9.72v-15.25h9.94c6.19,0,11.05-4.86,11.05-11.05,0-.66-.66-1.33-1.32-1.33h-2.87v-5.52h19.44v28.95h-15.25v-8.4c0-.66-.66-1.33-1.32-1.33s-1.33.66-1.33,1.33v9.72c0,.66.66,1.33,1.33,1.33h16.57v15.25c0,.66.66,1.33,1.32,1.33h8.4c.66,0,1.32-.66,1.32-1.33v-46.84h5.74c2.87,0,5.3-2.43,5.3-5.3v-3.31c0-2.87-2.43-5.08-5.3-5.08ZM64.1,130.48c0,1.55-1.32,2.87-2.87,2.87s-2.87-1.33-2.87-2.87c0-1.11.66-1.99,1.33-2.43.22.66.66,1.11,1.32,1.11s1.1-.44,1.33-1.11c1.1.44,1.77,1.33,1.77,2.43ZM95.92,130.48c0,1.55-1.32,2.87-2.87,2.87s-2.87-1.33-2.87-2.87c0-1.11.66-1.99,1.32-2.43.22.66.66,1.11,1.33,1.11s1.1-.44,1.32-1.11c1.11.44,1.77,1.33,1.77,2.43ZM113.81,60h12.37v5.53h-12.37v-5.53ZM108.29,68.39h12.37v5.52h-12.37v-5.52ZM44.65,73.92h-5.52v-13.92h5.52v13.92ZM36.48,73.92h-5.52v-13.92h5.52v13.92ZM22.56,60h5.52v13.92h-5.52v-13.92ZM30.95,133.14h-5.52v-45.52h5.52v45.52ZM16.81,84.97c-1.33,0-2.43-1.1-2.43-2.43v-3.32c0-1.32,1.1-2.43,2.43-2.43h36.24v8.4c-10.61-.22-25.63-.22-36.24-.22ZM59.9,102.86c-4.2,0-7.51-3.09-8.18-6.85h19.22v6.85h-11.05ZM73.82,120.76v-36.68c0-1.99,1.55-3.54,3.54-3.54s3.54,1.55,3.54,3.54v36.68h-7.07ZM93.04,102.86h-9.72v-6.85h17.9c-.66,3.76-3.98,6.85-8.18,6.85ZM83.32,93.14v-9.06c0-3.54-2.87-6.19-6.19-6.19s-6.19,2.87-6.19,6.41v9.06h-15.25v-37.34c0-3.76,3.1-6.85,6.85-6.85h27.84c3.76,0,6.85,3.09,6.85,6.85v37.34h-13.92v-.22ZM127.51,133.14h-5.52v-45.52h5.52v45.52ZM138.56,82.31c0,1.33-1.1,2.43-2.43,2.43h-36.24v-8.4h36.24c1.33,0,2.43,1.11,2.43,2.43v3.53Z"/>
  <path class="st0" d="M120.66,37.9c5.3,0,9.72-4.42,9.72-9.72s-4.42-9.72-9.72-9.72-9.72,4.42-9.72,9.72,4.42,9.72,9.72,9.72ZM120.66,21.33c3.76,0,6.85,3.09,6.85,6.85s-3.09,6.85-6.85,6.85-6.85-3.09-6.85-6.85,3.09-6.85,6.85-6.85Z"/>
  <path class="st0" d="M35.15,40.77c6.85,0,12.37-5.52,12.37-12.37s-5.52-12.37-12.37-12.37-12.37,5.52-12.37,12.37,5.3,12.37,12.37,12.37ZM35.15,18.68c5.3,0,9.72,4.42,9.72,9.72s-4.42,9.72-9.72,9.72-9.72-4.42-9.72-9.72,4.2-9.72,9.72-9.72Z"/>
  <path class="st0" d="M134.59,19.78c1.1-.44,1.55-1.55,1.1-2.65-.44-1.11-1.55-1.55-2.65-1.11-1.1.44-1.55,1.55-1.1,2.65.44,1.1,1.55,1.55,2.65,1.1Z"/>
  <path class="st0" d="M129.06,49.17c.44,1.1,1.55,1.55,2.65,1.1,1.11-.44,1.55-1.55,1.11-2.65-.44-1.1-1.55-1.55-2.65-1.1-1.1.22-1.55,1.55-1.1,2.65Z"/>
  <path class="st0" d="M93.04,21.11c1.1-.44,1.55-1.55,1.1-2.65-.44-1.11-1.55-1.55-2.65-1.11-1.1.44-1.55,1.55-1.1,2.65.44,1.1,1.77,1.55,2.65,1.1Z"/>
  <path class="st0" d="M66.97,35.03c1.1-.44,1.55-1.55,1.1-2.65-.44-1.1-1.55-1.55-2.65-1.1-1.1.44-1.55,1.55-1.1,2.65.22,1.11,1.55,1.55,2.65,1.11Z"/>
  <path class="st0" d="M18.58,44.75c1.1-.44,1.55-1.55,1.1-2.65-.44-1.1-1.55-1.55-2.65-1.1-1.1.44-1.55,1.55-1.1,2.65.44.88,1.55,1.55,2.65,1.1Z"/>
</svg>